<svg width="400" height="400" viewBox="0 0 400 400" fill="none" xmlns="http://www.w3.org/2000/svg">
<rect width="400" height="400" rx="200" fill="white"/>
<path d="M49.608 248.76V259.8H51C52.504 259.8 54.008 259.592 55.512 259.176C57.048 258.76 58.424 258.12 59.64 257.256C60.856 256.36 61.848 255.224 62.616 253.848C63.384 252.472 63.768 250.808 63.768 248.856C63.768 247.096 63.4 245.656 62.664 244.536C61.928 243.416 60.984 242.552 59.832 241.944C58.68 241.336 57.4 240.92 55.992 240.696C54.616 240.472 53.272 240.36 51.96 240.36C51.512 240.36 51 240.376 50.424 240.408C49.848 240.44 49.32 240.488 48.84 240.552L49.608 248.76ZM32.76 303V242.424L31.224 231.912C32.6 231.72 34.104 231.544 35.736 231.384C37.368 231.224 38.984 231.08 40.584 230.952C42.216 230.824 43.768 230.728 45.24 230.664C46.712 230.6 47.976 230.568 49.032 230.568C52.872 230.568 56.584 230.824 60.168 231.336C63.752 231.816 66.92 232.696 69.672 233.976C72.456 235.256 74.68 237.032 76.344 239.304C78.008 241.544 78.84 244.408 78.84 247.896C78.84 249.624 78.584 251.256 78.072 252.792C77.592 254.328 76.904 255.752 76.008 257.064C75.144 258.344 74.072 259.528 72.792 260.616C71.544 261.672 70.152 262.584 68.616 263.352C70.664 264.056 72.584 264.904 74.376 265.896C76.2 266.888 77.784 268.072 79.128 269.448C80.472 270.824 81.528 272.408 82.296 274.2C83.064 275.96 83.448 277.96 83.448 280.2C83.448 283.016 83.048 285.544 82.248 287.784C81.448 289.992 80.36 291.944 78.984 293.64C77.64 295.304 76.04 296.744 74.184 297.96C72.328 299.144 70.344 300.12 68.232 300.888C66.152 301.624 63.976 302.168 61.704 302.52C59.464 302.84 57.256 303 55.08 303H32.76ZM49.608 292.056H52.344C54.744 292.056 56.872 291.88 58.728 291.528C60.616 291.144 62.2 290.504 63.48 289.608C64.792 288.712 65.784 287.544 66.456 286.104C67.16 284.664 67.512 282.856 67.512 280.68C67.512 278.6 67.176 276.872 66.504 275.496C65.832 274.088 64.904 272.968 63.72 272.136C62.536 271.272 61.128 270.664 59.496 270.312C57.864 269.928 56.088 269.736 54.168 269.736H49.608V292.056ZM136.142 303H119.87V295.224L114.109 303.576C113.854 303.64 113.55 303.688 113.198 303.72C112.846 303.784 112.334 303.816 111.662 303.816C108.91 303.816 106.302 303.432 103.838 302.664C101.374 301.864 99.2135 300.712 97.3575 299.208C95.5015 297.672 94.0135 295.784 92.8935 293.544C91.8055 291.304 91.2615 288.728 91.2615 285.816C91.2615 283.768 91.5655 281.912 92.1735 280.248C92.7815 278.584 93.6135 277.096 94.6695 275.784C95.7575 274.472 97.0055 273.336 98.4135 272.376C99.8215 271.416 101.326 270.632 102.926 270.024C104.558 269.384 106.222 268.92 107.918 268.632C109.646 268.312 111.326 268.152 112.958 268.152C114.398 268.152 115.678 268.2 116.798 268.296C117.95 268.392 118.958 268.52 119.822 268.68C119.79 267.4 119.694 266.232 119.534 265.176C119.374 264.088 119.086 263.144 118.67 262.344C118.254 261.544 117.694 260.92 116.99 260.472C116.286 260.024 115.39 259.8 114.302 259.8C111.582 259.8 108.974 260.12 106.478 260.76C103.982 261.368 101.726 262.04 99.7095 262.776L94.7175 253.896C97.2135 252.776 99.6615 251.88 102.062 251.208C103.598 250.76 105.406 250.344 107.486 249.96C109.598 249.576 112.014 249.384 114.734 249.384C118.894 249.384 122.286 249.896 124.91 250.92C127.566 251.912 129.63 253.336 131.102 255.192C132.606 257.016 133.63 259.224 134.174 261.816C134.75 264.376 135.038 267.208 135.038 270.312V293.16L136.142 303ZM119.87 278.28C119.102 278.184 118.254 278.104 117.326 278.04C116.43 277.944 115.566 277.896 114.734 277.896C113.582 277.896 112.446 278.056 111.326 278.376C110.238 278.696 109.262 279.176 108.398 279.816C107.534 280.456 106.83 281.272 106.286 282.264C105.742 283.256 105.47 284.424 105.47 285.768C105.47 286.856 105.646 287.864 105.998 288.792C106.35 289.72 106.814 290.536 107.39 291.24C107.966 291.912 108.606 292.44 109.31 292.824C110.046 293.208 110.782 293.4 111.518 293.4C112.446 293.4 113.326 293.256 114.158 292.968C115.022 292.68 115.806 292.328 116.51 291.912C117.246 291.464 117.886 290.984 118.43 290.472C119.006 289.96 119.486 289.496 119.87 289.08V278.28ZM177.699 263.928C176.739 263 175.811 262.264 174.915 261.72C174.051 261.176 173.219 260.76 172.419 260.472C171.619 260.184 170.819 260.008 170.019 259.944C169.251 259.848 168.483 259.8 167.715 259.8C165.859 259.8 164.275 260.248 162.963 261.144C161.683 262.04 160.627 263.24 159.795 264.744C158.995 266.216 158.403 267.928 158.019 269.88C157.667 271.832 157.491 273.864 157.491 275.976C157.491 278.184 157.667 280.344 158.019 282.456C158.371 284.536 158.947 286.392 159.747 288.024C160.579 289.656 161.683 290.968 163.059 291.96C164.435 292.92 166.147 293.4 168.195 293.4C169.027 293.4 169.923 293.288 170.883 293.064C171.843 292.84 172.803 292.536 173.763 292.152C174.755 291.768 175.715 291.32 176.643 290.808C177.603 290.296 178.499 289.752 179.331 289.176L184.707 298.536C182.371 300.136 179.779 301.416 176.931 302.376C174.083 303.336 170.963 303.816 167.571 303.816C163.251 303.816 159.475 303.032 156.243 301.464C153.011 299.864 150.307 297.752 148.131 295.128C145.955 292.504 144.323 289.48 143.235 286.056C142.147 282.632 141.603 279.08 141.603 275.4C141.603 272.072 142.131 268.84 143.187 265.704C144.243 262.568 145.843 259.8 147.987 257.4C150.163 254.968 152.883 253.032 156.147 251.592C159.443 250.12 163.331 249.384 167.811 249.384C171.267 249.384 174.371 249.96 177.123 251.112C179.875 252.232 182.483 254.152 184.947 256.872L177.699 263.928ZM234.579 303H218.307V295.224L212.547 303.576C212.291 303.64 211.987 303.688 211.635 303.72C211.283 303.784 210.771 303.816 210.099 303.816C207.347 303.816 204.739 303.432 202.275 302.664C199.811 301.864 197.651 300.712 195.795 299.208C193.939 297.672 192.451 295.784 191.331 293.544C190.243 291.304 189.699 288.728 189.699 285.816C189.699 283.768 190.003 281.912 190.611 280.248C191.219 278.584 192.051 277.096 193.107 275.784C194.195 274.472 195.443 273.336 196.851 272.376C198.259 271.416 199.763 270.632 201.363 270.024C202.995 269.384 204.659 268.92 206.355 268.632C208.083 268.312 209.763 268.152 211.395 268.152C212.835 268.152 214.115 268.2 215.235 268.296C216.387 268.392 217.395 268.52 218.259 268.68C218.227 267.4 218.131 266.232 217.971 265.176C217.811 264.088 217.523 263.144 217.107 262.344C216.691 261.544 216.131 260.92 215.427 260.472C214.723 260.024 213.827 259.8 212.739 259.8C210.019 259.8 207.411 260.12 204.915 260.76C202.419 261.368 200.163 262.04 198.147 262.776L193.155 253.896C195.651 252.776 198.099 251.88 200.499 251.208C202.035 250.76 203.843 250.344 205.923 249.96C208.035 249.576 210.451 249.384 213.171 249.384C217.331 249.384 220.723 249.896 223.347 250.92C226.003 251.912 228.067 253.336 229.539 255.192C231.043 257.016 232.067 259.224 232.611 261.816C233.187 264.376 233.475 267.208 233.475 270.312V293.16L234.579 303ZM218.307 278.28C217.539 278.184 216.691 278.104 215.763 278.04C214.867 277.944 214.003 277.896 213.171 277.896C212.019 277.896 210.883 278.056 209.763 278.376C208.675 278.696 207.699 279.176 206.835 279.816C205.971 280.456 205.267 281.272 204.723 282.264C204.179 283.256 203.907 284.424 203.907 285.768C203.907 286.856 204.083 287.864 204.435 288.792C204.787 289.72 205.251 290.536 205.827 291.24C206.403 291.912 207.043 292.44 207.747 292.824C208.483 293.208 209.219 293.4 209.955 293.4C210.883 293.4 211.763 293.256 212.595 292.968C213.459 292.68 214.243 292.328 214.947 291.912C215.683 291.464 216.323 290.984 216.867 290.472C217.443 289.96 217.923 289.496 218.307 289.08V278.28Z" fill="#008F42"/>
<path d="M284.249 302.904C282.905 303.192 281.529 303.416 280.121 303.576C278.713 303.736 277.257 303.816 275.753 303.816C270.409 303.816 265.609 302.888 261.353 301.032C257.097 299.176 253.481 296.616 250.505 293.352C247.529 290.056 245.241 286.168 243.641 281.688C242.073 277.176 241.289 272.28 241.289 267C241.289 261.72 242.057 256.84 243.593 252.36C245.129 247.848 247.353 243.96 250.265 240.696C253.209 237.4 256.825 234.824 261.113 232.968C265.401 231.112 270.281 230.184 275.753 230.184C281.097 230.184 285.897 231.112 290.153 232.968C294.409 234.824 298.009 237.4 300.953 240.696C303.929 243.96 306.201 247.848 307.769 252.36C309.369 256.84 310.169 261.72 310.169 267C310.169 273.016 309.193 278.488 307.241 283.416C305.321 288.312 302.489 292.408 298.745 295.704C299.449 296.248 300.169 296.76 300.905 297.24C301.641 297.688 302.457 298.072 303.353 298.392C304.249 298.712 305.257 298.968 306.377 299.16C307.497 299.32 308.777 299.4 310.217 299.4L305.993 309.96H304.457C302.313 309.96 300.409 309.752 298.745 309.336C297.113 308.952 295.657 308.408 294.377 307.704C293.129 307.032 292.025 306.248 291.065 305.352C290.137 304.456 289.305 303.512 288.569 302.52C287.833 301.496 287.161 300.472 286.552 299.448C285.945 298.424 285.337 297.448 284.729 296.52L284.249 302.904ZM292.025 278.712C292.505 277.08 292.857 275.4 293.081 273.672C293.305 271.944 293.417 270.184 293.417 268.392C293.417 265 293.097 261.72 292.457 258.552C291.817 255.384 290.777 252.584 289.337 250.152C287.897 247.72 286.041 245.768 283.769 244.296C281.497 242.824 278.729 242.088 275.465 242.088C272.393 242.088 269.753 242.744 267.545 244.056C265.337 245.336 263.529 247.064 262.121 249.24C260.713 251.384 259.673 253.864 259.001 256.68C258.361 259.496 258.041 262.408 258.041 265.416C258.041 268.872 258.361 272.2 259.001 275.4C259.673 278.568 260.729 281.384 262.169 283.848C263.609 286.28 265.465 288.232 267.737 289.704C270.009 291.176 272.761 291.912 275.993 291.912H281.225C280.137 290.984 278.761 290.2 277.097 289.56C275.465 288.92 273.529 288.6 271.289 288.6L274.841 279C277.273 279 279.369 279.256 281.129 279.768C282.889 280.28 284.425 280.952 285.737 281.784C287.081 282.616 288.233 283.576 289.193 284.664C290.185 285.752 291.129 286.888 292.025 288.072V278.712ZM350.086 250.536L365.734 248.952V303H350.086V295.176L344.758 302.472C344.118 302.76 343.174 303.048 341.926 303.336C340.678 303.656 339.398 303.816 338.086 303.816C335.078 303.816 332.518 303.336 330.406 302.376C328.294 301.416 326.566 300.088 325.222 298.392C323.878 296.664 322.886 294.632 322.246 292.296C321.638 289.928 321.334 287.352 321.334 284.568V250.536L336.982 248.952V284.568C336.982 287.224 337.366 289.368 338.134 291C338.902 292.6 340.182 293.4 341.974 293.4C342.582 293.4 343.238 293.304 343.942 293.112C344.678 292.888 345.398 292.6 346.102 292.248C346.806 291.896 347.494 291.512 348.166 291.096C348.87 290.648 349.51 290.2 350.086 289.752V250.536Z" fill="#3F6752"/>
<path d="M140 77.6406C140 57.9063 144.062 54.7187 168.62 47.8073C193.177 40.8958 200 26.4375 200 26.4375C200 26.4375 206.828 40.8958 231.385 47.8073C255.943 54.7187 260.005 57.9063 260.005 77.6406M129.594 78.9167H200H270.406M132.63 190.5H200H267.375M139.208 190.724C139.208 206.729 154.984 214.651 170.677 214.802C186.37 214.953 200 229.563 200 229.563C200 229.563 213.635 214.953 229.323 214.802C245.01 214.651 260.797 206.729 260.797 190.724M148.036 190.797V79.9531M182.135 79.7083V190.49M251.969 190.797V79.9531M217.865 79.7083V190.49" stroke="#008F42" stroke-width="10" stroke-linecap="round" stroke-linejoin="round"/>
<path d="M83.6141 332.824V334.92H84.4941C84.8407 334.92 85.1767 334.883 85.5021 334.808C85.8274 334.728 86.1154 334.605 86.3661 334.44C86.6221 334.269 86.8274 334.051 86.9821 333.784C87.1367 333.517 87.2141 333.195 87.2141 332.816C87.2141 332.464 87.1394 332.171 86.9901 331.936C86.8407 331.701 86.6434 331.515 86.3981 331.376C86.1581 331.237 85.8861 331.141 85.5821 331.088C85.2781 331.029 84.9741 331 84.6701 331C84.5794 331 84.4807 331.003 84.3741 331.008C84.2674 331.013 84.1581 331.024 84.0461 331.04C83.9394 331.051 83.8327 331.064 83.7261 331.08C83.6247 331.096 83.5341 331.112 83.4541 331.128L83.6141 332.824ZM81.9341 342V331.68L81.6941 330.08C81.8541 330.059 82.0381 330.037 82.2461 330.016C82.4594 329.995 82.6781 329.979 82.9021 329.968C83.1261 329.952 83.3474 329.941 83.5661 329.936C83.7847 329.925 83.9794 329.92 84.1501 329.92C84.7421 329.92 85.3127 329.96 85.8621 330.04C86.4167 330.115 86.9074 330.253 87.3341 330.456C87.7607 330.659 88.1021 330.939 88.3581 331.296C88.6141 331.648 88.7421 332.099 88.7421 332.648C88.7421 333.229 88.6007 333.731 88.3181 334.152C88.0407 334.573 87.6727 334.896 87.2141 335.12L85.9821 335.472L87.1581 335.584C87.4834 335.68 87.7901 335.805 88.0781 335.96C88.3714 336.109 88.6274 336.293 88.8461 336.512C89.0647 336.731 89.2354 336.989 89.3581 337.288C89.4861 337.587 89.5501 337.931 89.5501 338.32C89.5501 338.773 89.4887 339.179 89.3661 339.536C89.2434 339.893 89.0781 340.208 88.8701 340.48C88.6621 340.752 88.4167 340.987 88.1341 341.184C87.8514 341.376 87.5474 341.533 87.2221 341.656C86.9021 341.773 86.5687 341.861 86.2221 341.92C85.8807 341.973 85.5447 342 85.2141 342H81.9341ZM83.6141 340.72H84.7341C85.2621 340.72 85.7261 340.683 86.1261 340.608C86.5261 340.528 86.8621 340.4 87.1341 340.224C87.4061 340.043 87.6087 339.805 87.7421 339.512C87.8807 339.213 87.9501 338.843 87.9501 338.4C87.9501 338 87.8807 337.659 87.7421 337.376C87.6034 337.093 87.4061 336.861 87.1501 336.68C86.8994 336.499 86.5954 336.368 86.2381 336.288C85.8807 336.203 85.4861 336.16 85.0541 336.16H83.6141V340.72ZM98.1803 342H96.5003V340.704L95.7483 341.6C95.6576 341.669 95.5536 341.736 95.4363 341.8C95.319 341.864 95.199 341.923 95.0763 341.976C94.959 342.024 94.839 342.061 94.7163 342.088C94.599 342.12 94.4896 342.136 94.3883 342.136C93.9883 342.136 93.6043 342.075 93.2363 341.952C92.8736 341.824 92.5536 341.64 92.2763 341.4C92.0043 341.155 91.7856 340.853 91.6203 340.496C91.4603 340.133 91.3803 339.717 91.3803 339.248C91.3803 338.752 91.479 338.323 91.6763 337.96C91.879 337.592 92.135 337.288 92.4443 337.048C92.759 336.803 93.1083 336.621 93.4923 336.504C93.8763 336.381 94.2523 336.32 94.6203 336.32C94.9243 336.32 95.191 336.336 95.4203 336.368C95.655 336.4 95.8523 336.437 96.0123 336.48C96.199 336.528 96.3616 336.581 96.5003 336.64V336.36C96.5003 336.045 96.4816 335.763 96.4443 335.512C96.407 335.261 96.3296 335.051 96.2123 334.88C96.1003 334.704 95.935 334.571 95.7163 334.48C95.503 334.389 95.2176 334.344 94.8603 334.344C94.5723 334.344 94.295 334.365 94.0283 334.408C93.7616 334.445 93.5243 334.488 93.3163 334.536C93.071 334.595 92.8443 334.656 92.6363 334.72L92.0603 333.648C92.295 333.541 92.5616 333.445 92.8603 333.36C93.1163 333.285 93.4203 333.219 93.7723 333.16C94.1243 333.096 94.5136 333.064 94.9403 333.064C95.5536 333.064 96.0603 333.147 96.4603 333.312C96.8603 333.477 97.175 333.709 97.4043 334.008C97.6336 334.307 97.7936 334.667 97.8843 335.088C97.975 335.504 98.0203 335.968 98.0203 336.48V340.56L98.1803 342ZM96.5003 337.736C96.351 337.715 96.191 337.693 96.0203 337.672C95.8763 337.656 95.711 337.64 95.5243 337.624C95.3376 337.608 95.143 337.6 94.9403 337.6C94.6416 337.6 94.367 337.629 94.1163 337.688C93.871 337.747 93.6576 337.843 93.4763 337.976C93.295 338.104 93.1536 338.272 93.0523 338.48C92.951 338.688 92.9003 338.941 92.9003 339.24C92.9003 339.48 92.9403 339.699 93.0203 339.896C93.1003 340.093 93.2096 340.264 93.3483 340.408C93.487 340.552 93.6496 340.664 93.8363 340.744C94.0283 340.819 94.2336 340.856 94.4523 340.856C94.5536 340.856 94.6603 340.843 94.7723 340.816C94.8896 340.784 95.0043 340.744 95.1163 340.696C95.2336 340.648 95.3483 340.592 95.4603 340.528C95.5776 340.464 95.687 340.4 95.7883 340.336C96.0283 340.181 96.2656 340.005 96.5003 339.808V337.736ZM105.683 334.976C105.475 334.789 105.227 334.637 104.939 334.52C104.656 334.403 104.363 334.344 104.059 334.344C103.611 334.344 103.229 334.429 102.915 334.6C102.6 334.765 102.344 334.992 102.147 335.28C101.955 335.568 101.813 335.904 101.723 336.288C101.632 336.667 101.587 337.067 101.587 337.488C101.587 337.925 101.627 338.344 101.707 338.744C101.792 339.139 101.933 339.488 102.131 339.792C102.328 340.096 102.589 340.339 102.915 340.52C103.245 340.696 103.656 340.784 104.147 340.784C104.557 340.784 104.904 340.736 105.187 340.64C105.475 340.544 105.696 340.443 105.851 340.336L106.427 341.464C106.128 341.667 105.779 341.829 105.379 341.952C104.984 342.075 104.536 342.136 104.035 342.136C103.368 342.136 102.784 342.005 102.283 341.744C101.781 341.477 101.363 341.125 101.027 340.688C100.696 340.245 100.445 339.739 100.275 339.168C100.109 338.592 100.027 337.997 100.027 337.384C100.027 336.829 100.107 336.293 100.267 335.776C100.432 335.253 100.68 334.792 101.011 334.392C101.347 333.992 101.768 333.672 102.275 333.432C102.787 333.187 103.387 333.064 104.075 333.064C104.565 333.064 105.003 333.141 105.387 333.296C105.776 333.445 106.139 333.704 106.475 334.072L105.683 334.976ZM114.587 342H112.907V340.704L112.155 341.6C112.064 341.669 111.96 341.736 111.843 341.8C111.725 341.864 111.605 341.923 111.483 341.976C111.365 342.024 111.245 342.061 111.123 342.088C111.005 342.12 110.896 342.136 110.795 342.136C110.395 342.136 110.011 342.075 109.643 341.952C109.28 341.824 108.96 341.64 108.683 341.4C108.411 341.155 108.192 340.853 108.027 340.496C107.867 340.133 107.787 339.717 107.787 339.248C107.787 338.752 107.885 338.323 108.083 337.96C108.285 337.592 108.541 337.288 108.851 337.048C109.165 336.803 109.515 336.621 109.899 336.504C110.283 336.381 110.659 336.32 111.027 336.32C111.331 336.32 111.597 336.336 111.827 336.368C112.061 336.4 112.259 336.437 112.419 336.48C112.605 336.528 112.768 336.581 112.907 336.64V336.36C112.907 336.045 112.888 335.763 112.851 335.512C112.813 335.261 112.736 335.051 112.619 334.88C112.507 334.704 112.341 334.571 112.123 334.48C111.909 334.389 111.624 334.344 111.267 334.344C110.979 334.344 110.701 334.365 110.435 334.408C110.168 334.445 109.931 334.488 109.723 334.536C109.477 334.595 109.251 334.656 109.043 334.72L108.467 333.648C108.701 333.541 108.968 333.445 109.267 333.36C109.523 333.285 109.827 333.219 110.179 333.16C110.531 333.096 110.92 333.064 111.347 333.064C111.96 333.064 112.467 333.147 112.867 333.312C113.267 333.477 113.581 333.709 113.811 334.008C114.04 334.307 114.2 334.667 114.291 335.088C114.381 335.504 114.427 335.968 114.427 336.48V340.56L114.587 342ZM112.907 337.736C112.757 337.715 112.597 337.693 112.427 337.672C112.283 337.656 112.117 337.64 111.931 337.624C111.744 337.608 111.549 337.6 111.347 337.6C111.048 337.6 110.773 337.629 110.523 337.688C110.277 337.747 110.064 337.843 109.883 337.976C109.701 338.104 109.56 338.272 109.459 338.48C109.357 338.688 109.307 338.941 109.307 339.24C109.307 339.48 109.347 339.699 109.427 339.896C109.507 340.093 109.616 340.264 109.755 340.408C109.893 340.552 110.056 340.664 110.243 340.744C110.435 340.819 110.64 340.856 110.859 340.856C110.96 340.856 111.067 340.843 111.179 340.816C111.296 340.784 111.411 340.744 111.523 340.696C111.64 340.648 111.755 340.592 111.867 340.528C111.984 340.464 112.093 340.4 112.195 340.336C112.435 340.181 112.672 340.005 112.907 339.808V337.736ZM121.723 342L125.107 331.6L125.387 330L127.123 329.84L131.107 342H129.507L128.323 338.4H124.363L123.195 342H121.723ZM126.339 331.12L126.051 333.2L124.755 337.2H127.931L126.627 333.2L126.339 331.12ZM134.753 338.992C134.753 339.344 134.771 339.64 134.809 339.88C134.851 340.115 134.91 340.307 134.985 340.456C135.065 340.6 135.161 340.704 135.273 340.768C135.39 340.827 135.523 340.856 135.673 340.856C135.79 340.856 135.897 340.851 135.993 340.84C136.089 340.824 136.171 340.805 136.241 340.784C136.321 340.763 136.393 340.739 136.457 340.712L137.009 341.68C136.966 341.723 136.897 341.771 136.801 341.824C136.71 341.872 136.601 341.92 136.473 341.968C136.345 342.016 136.198 342.056 136.033 342.088C135.873 342.12 135.699 342.136 135.513 342.136C135.033 342.136 134.643 342.048 134.345 341.872C134.046 341.696 133.814 341.456 133.649 341.152C133.483 340.848 133.371 340.496 133.313 340.096C133.259 339.691 133.233 339.259 133.233 338.8V330.8L133.073 329.2L134.753 329.04V338.992ZM138.827 337.2H142.827V338.44H138.827V337.2ZM155.662 343.16C155.363 343.16 155.064 343.139 154.766 343.096C154.472 343.059 154.184 342.971 153.902 342.832C153.619 342.693 153.344 342.493 153.078 342.232C152.811 341.976 152.56 341.627 152.326 341.184L152.246 341.04C152.219 340.992 152.192 340.947 152.166 340.904L152.086 342.008C151.888 342.051 151.686 342.083 151.478 342.104C151.27 342.125 151.054 342.136 150.83 342.136C149.987 342.136 149.232 341.981 148.566 341.672C147.899 341.363 147.331 340.936 146.862 340.392C146.398 339.843 146.04 339.195 145.79 338.448C145.544 337.696 145.422 336.88 145.422 336C145.422 335.12 145.542 334.307 145.782 333.56C146.022 332.808 146.371 332.16 146.83 331.616C147.294 331.067 147.862 330.637 148.534 330.328C149.206 330.019 149.971 329.864 150.83 329.864C151.667 329.864 152.419 330.019 153.086 330.328C153.758 330.637 154.326 331.067 154.79 331.616C155.259 332.16 155.616 332.808 155.862 333.56C156.112 334.307 156.238 335.12 156.238 336C156.238 336.56 156.187 337.096 156.086 337.608C155.99 338.115 155.846 338.589 155.654 339.032C155.462 339.469 155.224 339.869 154.942 340.232C154.664 340.595 154.344 340.909 153.982 341.176C154.136 341.373 154.286 341.528 154.43 341.64C154.579 341.747 154.736 341.829 154.902 341.888C155.072 341.941 155.254 341.976 155.446 341.992C155.643 342.003 155.867 342.008 156.118 342.008L155.662 343.16ZM154.574 336.248C154.574 335.821 154.544 335.403 154.486 334.992C154.427 334.576 154.334 334.184 154.206 333.816C154.078 333.443 153.912 333.099 153.71 332.784C153.507 332.464 153.264 332.189 152.982 331.96C152.704 331.731 152.382 331.552 152.014 331.424C151.651 331.291 151.24 331.224 150.782 331.224C150.126 331.224 149.563 331.352 149.094 331.608C148.63 331.859 148.248 332.195 147.95 332.616C147.651 333.037 147.432 333.517 147.294 334.056C147.155 334.595 147.086 335.149 147.086 335.72C147.086 336.152 147.115 336.576 147.174 336.992C147.238 337.408 147.334 337.805 147.462 338.184C147.59 338.557 147.752 338.904 147.95 339.224C148.152 339.539 148.392 339.811 148.67 340.04C148.952 340.269 149.275 340.451 149.638 340.584C150.006 340.712 150.419 340.776 150.878 340.776C151.08 340.776 151.275 340.763 151.462 340.736C151.648 340.709 151.824 340.672 151.99 340.624C151.835 340.384 151.683 340.195 151.534 340.056C151.39 339.917 151.238 339.813 151.078 339.744C150.918 339.675 150.742 339.632 150.55 339.616C150.358 339.6 150.136 339.592 149.886 339.592L150.342 338.44C150.635 338.44 150.92 338.472 151.198 338.536C151.475 338.6 151.747 338.712 152.014 338.872C152.286 339.032 152.552 339.251 152.814 339.528C153.075 339.805 153.334 340.157 153.59 340.584V339.488C153.931 339.056 154.179 338.557 154.334 337.992C154.494 337.427 154.574 336.845 154.574 336.248ZM163.707 333.2L165.227 333.04V342H163.707V340.696L163.219 341.552C163.123 341.616 163.008 341.683 162.875 341.752C162.747 341.821 162.6 341.885 162.435 341.944C162.269 341.997 162.088 342.043 161.891 342.08C161.693 342.117 161.485 342.136 161.267 342.136C160.84 342.136 160.472 342.059 160.163 341.904C159.859 341.749 159.608 341.533 159.411 341.256C159.213 340.979 159.067 340.651 158.971 340.272C158.875 339.888 158.827 339.472 158.827 339.024V333.2L160.347 333.04V339.024C160.347 339.6 160.461 340.051 160.691 340.376C160.925 340.696 161.291 340.856 161.787 340.856C161.968 340.856 162.147 340.827 162.323 340.768C162.499 340.709 162.669 340.635 162.835 340.544C163 340.453 163.155 340.355 163.299 340.248C163.448 340.141 163.584 340.037 163.707 339.936V333.2ZM172.188 334.416C171.975 334.416 171.764 334.459 171.556 334.544C171.348 334.629 171.148 334.744 170.956 334.888C170.764 335.032 170.583 335.2 170.412 335.392C170.242 335.584 170.084 335.787 169.94 336V342H168.42V333.2L169.94 333.04V334.84L170.74 333.44C170.81 333.397 170.895 333.355 170.996 333.312C171.103 333.264 171.223 333.224 171.356 333.192C171.49 333.155 171.631 333.125 171.78 333.104C171.935 333.077 172.092 333.064 172.252 333.064C172.492 333.064 172.692 333.085 172.852 333.128C173.018 333.171 173.14 333.211 173.22 333.248L173.14 334.576C173.06 334.549 172.94 334.517 172.78 334.48C172.62 334.437 172.423 334.416 172.188 334.416ZM174.635 331.56C174.635 331.427 174.661 331.301 174.715 331.184C174.768 331.067 174.84 330.965 174.931 330.88C175.021 330.789 175.125 330.72 175.243 330.672C175.365 330.619 175.493 330.592 175.627 330.592C175.76 330.592 175.885 330.616 176.003 330.664C176.125 330.707 176.232 330.773 176.323 330.864C176.413 330.955 176.485 331.069 176.539 331.208C176.597 331.341 176.627 331.496 176.627 331.672C176.627 331.907 176.611 332.136 176.579 332.36C176.552 332.584 176.493 332.811 176.403 333.04C176.312 333.269 176.181 333.504 176.011 333.744C175.84 333.979 175.616 334.224 175.339 334.48L174.987 334.32C175.088 334.123 175.179 333.92 175.259 333.712C175.328 333.536 175.389 333.344 175.443 333.136C175.501 332.928 175.531 332.725 175.531 332.528C175.419 332.523 175.309 332.499 175.203 332.456C175.096 332.408 175 332.344 174.915 332.264C174.829 332.184 174.76 332.085 174.707 331.968C174.659 331.851 174.635 331.715 174.635 331.56ZM186.18 342H184.5V340.704L183.748 341.6C183.658 341.669 183.554 341.736 183.436 341.8C183.319 341.864 183.199 341.923 183.076 341.976C182.959 342.024 182.839 342.061 182.716 342.088C182.599 342.12 182.49 342.136 182.388 342.136C181.988 342.136 181.604 342.075 181.236 341.952C180.874 341.824 180.554 341.64 180.276 341.4C180.004 341.155 179.786 340.853 179.62 340.496C179.46 340.133 179.38 339.717 179.38 339.248C179.38 338.752 179.479 338.323 179.676 337.96C179.879 337.592 180.135 337.288 180.444 337.048C180.759 336.803 181.108 336.621 181.492 336.504C181.876 336.381 182.252 336.32 182.62 336.32C182.924 336.32 183.191 336.336 183.42 336.368C183.655 336.4 183.852 336.437 184.012 336.48C184.199 336.528 184.362 336.581 184.5 336.64V336.36C184.5 336.045 184.482 335.763 184.444 335.512C184.407 335.261 184.33 335.051 184.212 334.88C184.1 334.704 183.935 334.571 183.716 334.48C183.503 334.389 183.218 334.344 182.86 334.344C182.572 334.344 182.295 334.365 182.028 334.408C181.762 334.445 181.524 334.488 181.316 334.536C181.071 334.595 180.844 334.656 180.636 334.72L180.06 333.648C180.295 333.541 180.562 333.445 180.86 333.36C181.116 333.285 181.42 333.219 181.772 333.16C182.124 333.096 182.514 333.064 182.94 333.064C183.554 333.064 184.06 333.147 184.46 333.312C184.86 333.477 185.175 333.709 185.404 334.008C185.634 334.307 185.794 334.667 185.884 335.088C185.975 335.504 186.02 335.968 186.02 336.48V340.56L186.18 342ZM184.5 337.736C184.351 337.715 184.191 337.693 184.02 337.672C183.876 337.656 183.711 337.64 183.524 337.624C183.338 337.608 183.143 337.6 182.94 337.6C182.642 337.6 182.367 337.629 182.116 337.688C181.871 337.747 181.658 337.843 181.476 337.976C181.295 338.104 181.154 338.272 181.052 338.48C180.951 338.688 180.9 338.941 180.9 339.24C180.9 339.48 180.94 339.699 181.02 339.896C181.1 340.093 181.21 340.264 181.348 340.408C181.487 340.552 181.65 340.664 181.836 340.744C182.028 340.819 182.234 340.856 182.452 340.856C182.554 340.856 182.66 340.843 182.772 340.816C182.89 340.784 183.004 340.744 183.116 340.696C183.234 340.648 183.348 340.592 183.46 340.528C183.578 340.464 183.687 340.4 183.788 340.336C184.028 340.181 184.266 340.005 184.5 339.808V337.736ZM190.347 342H188.827V333.2L190.347 333.04V334.504L190.835 333.648C190.931 333.584 191.053 333.517 191.203 333.448C191.352 333.379 191.517 333.317 191.699 333.264C191.885 333.205 192.085 333.157 192.299 333.12C192.512 333.083 192.728 333.064 192.947 333.064C193.368 333.064 193.723 333.133 194.011 333.272C194.304 333.405 194.541 333.6 194.723 333.856C194.904 334.112 195.032 334.421 195.107 334.784C195.187 335.147 195.227 335.552 195.227 336V342H193.707V336C193.707 335.712 193.685 335.464 193.643 335.256C193.605 335.048 193.536 334.877 193.435 334.744C193.339 334.605 193.208 334.504 193.043 334.44C192.877 334.376 192.672 334.344 192.427 334.344C192.245 334.344 192.061 334.373 191.875 334.432C191.688 334.485 191.504 334.557 191.323 334.648C191.147 334.733 190.973 334.829 190.803 334.936C190.637 335.043 190.485 335.147 190.347 335.248V342ZM207.662 334.48C207.171 334.48 206.747 334.573 206.39 334.76C206.033 334.941 205.737 335.189 205.502 335.504C205.267 335.819 205.094 336.189 204.982 336.616C204.87 337.043 204.814 337.499 204.814 337.984C204.814 338.459 204.87 338.875 204.982 339.232C205.094 339.589 205.238 339.888 205.414 340.128C205.595 340.368 205.801 340.549 206.03 340.672C206.259 340.789 206.494 340.848 206.734 340.848C206.985 340.848 207.217 340.805 207.43 340.72C207.649 340.635 207.849 340.528 208.03 340.4C208.211 340.272 208.374 340.133 208.518 339.984C208.662 339.829 208.787 339.685 208.894 339.552V334.48H207.662ZM208.894 342V340.704L208.134 341.608C208.038 341.672 207.934 341.736 207.822 341.8C207.71 341.864 207.585 341.92 207.446 341.968C207.307 342.016 207.153 342.056 206.982 342.088C206.817 342.12 206.63 342.136 206.422 342.136C205.985 342.136 205.577 342.029 205.198 341.816C204.819 341.597 204.489 341.296 204.206 340.912C203.929 340.528 203.707 340.072 203.542 339.544C203.382 339.011 203.302 338.427 203.302 337.792C203.302 337.152 203.403 336.555 203.606 336C203.814 335.44 204.107 334.952 204.486 334.536C204.865 334.12 205.321 333.795 205.854 333.56C206.393 333.32 206.993 333.2 207.654 333.2H208.894V329.04L210.414 329.2V340.56L210.574 342H208.894ZM215.128 342H213.608V333.56L215.128 333.4V342ZM213.56 330H215.176V331.6H213.56V330ZM219.925 342H218.405V333.2L219.925 333.04V334.504L220.413 333.648C220.509 333.584 220.629 333.517 220.773 333.448C220.917 333.379 221.079 333.317 221.261 333.264C221.442 333.205 221.637 333.157 221.845 333.12C222.053 333.083 222.266 333.064 222.485 333.064C223.082 333.064 223.567 333.211 223.941 333.504C224.314 333.792 224.557 334.163 224.669 334.616L225.277 333.68C225.463 333.531 225.727 333.392 226.069 333.264C226.41 333.131 226.802 333.064 227.245 333.064C227.65 333.064 227.997 333.133 228.285 333.272C228.573 333.405 228.807 333.6 228.989 333.856C229.175 334.112 229.311 334.421 229.397 334.784C229.482 335.147 229.525 335.552 229.525 336V342H228.005V336.08C228.005 335.792 227.983 335.541 227.941 335.328C227.903 335.109 227.834 334.928 227.733 334.784C227.637 334.635 227.506 334.525 227.341 334.456C227.175 334.381 226.97 334.344 226.725 334.344C226.57 334.344 226.407 334.371 226.237 334.424C226.071 334.477 225.903 334.549 225.733 334.64C225.562 334.725 225.394 334.827 225.229 334.944C225.069 335.056 224.917 335.171 224.773 335.288C224.789 335.443 224.797 335.573 224.797 335.68C224.802 335.781 224.805 335.915 224.805 336.08V342H223.285V336.08C223.285 335.504 223.189 335.072 222.997 334.784C222.805 334.491 222.461 334.344 221.965 334.344C221.805 334.344 221.634 334.368 221.453 334.416C221.271 334.464 221.09 334.531 220.909 334.616C220.733 334.701 220.559 334.8 220.389 334.912C220.218 335.019 220.063 335.131 219.925 335.248V342ZM238.571 342H236.891V340.704L236.139 341.6C236.048 341.669 235.944 341.736 235.827 341.8C235.71 341.864 235.59 341.923 235.467 341.976C235.35 342.024 235.23 342.061 235.107 342.088C234.99 342.12 234.88 342.136 234.779 342.136C234.379 342.136 233.995 342.075 233.627 341.952C233.264 341.824 232.944 341.64 232.667 341.4C232.395 341.155 232.176 340.853 232.011 340.496C231.851 340.133 231.771 339.717 231.771 339.248C231.771 338.752 231.87 338.323 232.067 337.96C232.27 337.592 232.526 337.288 232.835 337.048C233.15 336.803 233.499 336.621 233.883 336.504C234.267 336.381 234.643 336.32 235.011 336.32C235.315 336.32 235.582 336.336 235.811 336.368C236.046 336.4 236.243 336.437 236.403 336.48C236.59 336.528 236.752 336.581 236.891 336.64V336.36C236.891 336.045 236.872 335.763 236.835 335.512C236.798 335.261 236.72 335.051 236.603 334.88C236.491 334.704 236.326 334.571 236.107 334.48C235.894 334.389 235.608 334.344 235.251 334.344C234.963 334.344 234.686 334.365 234.419 334.408C234.152 334.445 233.915 334.488 233.707 334.536C233.462 334.595 233.235 334.656 233.027 334.72L232.451 333.648C232.686 333.541 232.952 333.445 233.251 333.36C233.507 333.285 233.811 333.219 234.163 333.16C234.515 333.096 234.904 333.064 235.331 333.064C235.944 333.064 236.451 333.147 236.851 333.312C237.251 333.477 237.566 333.709 237.795 334.008C238.024 334.307 238.184 334.667 238.275 335.088C238.366 335.504 238.411 335.968 238.411 336.48V340.56L238.571 342ZM236.891 337.736C236.742 337.715 236.582 337.693 236.411 337.672C236.267 337.656 236.102 337.64 235.915 337.624C235.728 337.608 235.534 337.6 235.331 337.6C235.032 337.6 234.758 337.629 234.507 337.688C234.262 337.747 234.048 337.843 233.867 337.976C233.686 338.104 233.544 338.272 233.443 338.48C233.342 338.688 233.291 338.941 233.291 339.24C233.291 339.48 233.331 339.699 233.411 339.896C233.491 340.093 233.6 340.264 233.739 340.408C233.878 340.552 234.04 340.664 234.227 340.744C234.419 340.819 234.624 340.856 234.843 340.856C234.944 340.856 235.051 340.843 235.163 340.816C235.28 340.784 235.395 340.744 235.507 340.696C235.624 340.648 235.739 340.592 235.851 340.528C235.968 340.464 236.078 340.4 236.179 340.336C236.419 340.181 236.656 340.005 236.891 339.808V337.736ZM242.737 342H241.217V333.2L242.737 333.04V334.504L243.225 333.648C243.321 333.584 243.444 333.517 243.593 333.448C243.743 333.379 243.908 333.317 244.089 333.264C244.276 333.205 244.476 333.157 244.689 333.12C244.903 333.083 245.119 333.064 245.337 333.064C245.759 333.064 246.113 333.133 246.401 333.272C246.695 333.405 246.932 333.6 247.113 333.856C247.295 334.112 247.423 334.421 247.497 334.784C247.577 335.147 247.617 335.552 247.617 336V342H246.097V336C246.097 335.712 246.076 335.464 246.033 335.256C245.996 335.048 245.927 334.877 245.825 334.744C245.729 334.605 245.599 334.504 245.433 334.44C245.268 334.376 245.063 334.344 244.817 334.344C244.636 334.344 244.452 334.373 244.265 334.432C244.079 334.485 243.895 334.557 243.713 334.648C243.537 334.733 243.364 334.829 243.193 334.936C243.028 335.043 242.876 335.147 242.737 335.248V342ZM256.571 342H254.891V340.704L254.139 341.6C254.048 341.669 253.944 341.736 253.827 341.8C253.71 341.864 253.59 341.923 253.467 341.976C253.35 342.024 253.23 342.061 253.107 342.088C252.99 342.12 252.88 342.136 252.779 342.136C252.379 342.136 251.995 342.075 251.627 341.952C251.264 341.824 250.944 341.64 250.667 341.4C250.395 341.155 250.176 340.853 250.011 340.496C249.851 340.133 249.771 339.717 249.771 339.248C249.771 338.752 249.87 338.323 250.067 337.96C250.27 337.592 250.526 337.288 250.835 337.048C251.15 336.803 251.499 336.621 251.883 336.504C252.267 336.381 252.643 336.32 253.011 336.32C253.315 336.32 253.582 336.336 253.811 336.368C254.046 336.4 254.243 336.437 254.403 336.48C254.59 336.528 254.752 336.581 254.891 336.64V336.36C254.891 336.045 254.872 335.763 254.835 335.512C254.798 335.261 254.72 335.051 254.603 334.88C254.491 334.704 254.326 334.571 254.107 334.48C253.894 334.389 253.608 334.344 253.251 334.344C252.963 334.344 252.686 334.365 252.419 334.408C252.152 334.445 251.915 334.488 251.707 334.536C251.462 334.595 251.235 334.656 251.027 334.72L250.451 333.648C250.686 333.541 250.952 333.445 251.251 333.36C251.507 333.285 251.811 333.219 252.163 333.16C252.515 333.096 252.904 333.064 253.331 333.064C253.944 333.064 254.451 333.147 254.851 333.312C255.251 333.477 255.566 333.709 255.795 334.008C256.024 334.307 256.184 334.667 256.275 335.088C256.366 335.504 256.411 335.968 256.411 336.48V340.56L256.571 342ZM254.891 337.736C254.742 337.715 254.582 337.693 254.411 337.672C254.267 337.656 254.102 337.64 253.915 337.624C253.728 337.608 253.534 337.6 253.331 337.6C253.032 337.6 252.758 337.629 252.507 337.688C252.262 337.747 252.048 337.843 251.867 337.976C251.686 338.104 251.544 338.272 251.443 338.48C251.342 338.688 251.291 338.941 251.291 339.24C251.291 339.48 251.331 339.699 251.411 339.896C251.491 340.093 251.6 340.264 251.739 340.408C251.878 340.552 252.04 340.664 252.227 340.744C252.419 340.819 252.624 340.856 252.843 340.856C252.944 340.856 253.051 340.843 253.163 340.816C253.28 340.784 253.395 340.744 253.507 340.696C253.624 340.648 253.739 340.592 253.851 340.528C253.968 340.464 254.078 340.4 254.179 340.336C254.419 340.181 254.656 340.005 254.891 339.808V337.736ZM260.737 340.72H262.049C262.54 340.72 262.964 340.64 263.321 340.48C263.684 340.315 263.98 340.085 264.209 339.792C264.444 339.499 264.617 339.147 264.729 338.736C264.841 338.325 264.897 337.872 264.897 337.376C264.897 336.853 264.847 336.403 264.745 336.024C264.644 335.64 264.505 335.325 264.329 335.08C264.153 334.829 263.948 334.645 263.713 334.528C263.484 334.405 263.239 334.344 262.977 334.344C262.716 334.344 262.471 334.379 262.241 334.448C262.017 334.512 261.809 334.595 261.617 334.696C261.431 334.797 261.263 334.909 261.113 335.032C260.964 335.155 260.839 335.272 260.737 335.384V340.72ZM259.217 346V333.2L260.737 333.04V334.448L261.497 333.432C261.652 333.341 261.871 333.259 262.153 333.184C262.441 333.104 262.793 333.064 263.209 333.064C263.652 333.064 264.068 333.168 264.457 333.376C264.847 333.584 265.185 333.88 265.473 334.264C265.767 334.648 265.996 335.112 266.161 335.656C266.332 336.2 266.417 336.808 266.417 337.48C266.417 338.136 266.311 338.741 266.097 339.296C265.884 339.845 265.58 340.323 265.185 340.728C264.796 341.128 264.321 341.44 263.761 341.664C263.207 341.888 262.585 342 261.897 342H260.737V346H259.217ZM273.691 333.2L275.211 333.04V342H273.691V340.696L273.203 341.552C273.107 341.616 272.992 341.683 272.859 341.752C272.731 341.821 272.584 341.885 272.419 341.944C272.254 341.997 272.072 342.043 271.875 342.08C271.678 342.117 271.47 342.136 271.251 342.136C270.824 342.136 270.456 342.059 270.147 341.904C269.843 341.749 269.592 341.533 269.395 341.256C269.198 340.979 269.051 340.651 268.955 340.272C268.859 339.888 268.811 339.472 268.811 339.024V333.2L270.331 333.04V339.024C270.331 339.6 270.446 340.051 270.675 340.376C270.91 340.696 271.275 340.856 271.771 340.856C271.952 340.856 272.131 340.827 272.307 340.768C272.483 340.709 272.654 340.635 272.819 340.544C272.984 340.453 273.139 340.355 273.283 340.248C273.432 340.141 273.568 340.037 273.691 339.936V333.2ZM279.925 342H278.405V333.2L279.925 333.04V334.504L280.413 333.648C280.509 333.584 280.631 333.517 280.781 333.448C280.93 333.379 281.095 333.317 281.277 333.264C281.463 333.205 281.663 333.157 281.877 333.12C282.09 333.083 282.306 333.064 282.525 333.064C282.946 333.064 283.301 333.133 283.589 333.272C283.882 333.405 284.119 333.6 284.301 333.856C284.482 334.112 284.61 334.421 284.685 334.784C284.765 335.147 284.805 335.552 284.805 336V342H283.285V336C283.285 335.712 283.263 335.464 283.221 335.256C283.183 335.048 283.114 334.877 283.013 334.744C282.917 334.605 282.786 334.504 282.621 334.44C282.455 334.376 282.25 334.344 282.005 334.344C281.823 334.344 281.639 334.373 281.453 334.432C281.266 334.485 281.082 334.557 280.901 334.648C280.725 334.733 280.551 334.829 280.381 334.936C280.215 335.043 280.063 335.147 279.925 335.248V342ZM297.24 334.48C296.75 334.48 296.326 334.573 295.968 334.76C295.611 334.941 295.315 335.189 295.08 335.504C294.846 335.819 294.672 336.189 294.56 336.616C294.448 337.043 294.392 337.499 294.392 337.984C294.392 338.459 294.448 338.875 294.56 339.232C294.672 339.589 294.816 339.888 294.992 340.128C295.174 340.368 295.379 340.549 295.608 340.672C295.838 340.789 296.072 340.848 296.312 340.848C296.563 340.848 296.795 340.805 297.008 340.72C297.227 340.635 297.427 340.528 297.608 340.4C297.79 340.272 297.952 340.133 298.096 339.984C298.24 339.829 298.366 339.685 298.472 339.552V334.48H297.24ZM298.472 342V340.704L297.712 341.608C297.616 341.672 297.512 341.736 297.4 341.8C297.288 341.864 297.163 341.92 297.024 341.968C296.886 342.016 296.731 342.056 296.56 342.088C296.395 342.12 296.208 342.136 296 342.136C295.563 342.136 295.155 342.029 294.776 341.816C294.398 341.597 294.067 341.296 293.784 340.912C293.507 340.528 293.286 340.072 293.12 339.544C292.96 339.011 292.88 338.427 292.88 337.792C292.88 337.152 292.982 336.555 293.184 336C293.392 335.44 293.686 334.952 294.064 334.536C294.443 334.12 294.899 333.795 295.432 333.56C295.971 333.32 296.571 333.2 297.232 333.2H298.472V329.04L299.992 329.2V340.56L300.152 342H298.472ZM308.946 342H307.266V340.704L306.514 341.6C306.423 341.669 306.319 341.736 306.202 341.8C306.085 341.864 305.965 341.923 305.842 341.976C305.725 342.024 305.605 342.061 305.482 342.088C305.365 342.12 305.255 342.136 305.154 342.136C304.754 342.136 304.37 342.075 304.002 341.952C303.639 341.824 303.319 341.64 303.042 341.4C302.77 341.155 302.551 340.853 302.386 340.496C302.226 340.133 302.146 339.717 302.146 339.248C302.146 338.752 302.245 338.323 302.442 337.96C302.645 337.592 302.901 337.288 303.21 337.048C303.525 336.803 303.874 336.621 304.258 336.504C304.642 336.381 305.018 336.32 305.386 336.32C305.69 336.32 305.957 336.336 306.186 336.368C306.421 336.4 306.618 336.437 306.778 336.48C306.965 336.528 307.127 336.581 307.266 336.64V336.36C307.266 336.045 307.247 335.763 307.21 335.512C307.173 335.261 307.095 335.051 306.978 334.88C306.866 334.704 306.701 334.571 306.482 334.48C306.269 334.389 305.983 334.344 305.626 334.344C305.338 334.344 305.061 334.365 304.794 334.408C304.527 334.445 304.29 334.488 304.082 334.536C303.837 334.595 303.61 334.656 303.402 334.72L302.826 333.648C303.061 333.541 303.327 333.445 303.626 333.36C303.882 333.285 304.186 333.219 304.538 333.16C304.89 333.096 305.279 333.064 305.706 333.064C306.319 333.064 306.826 333.147 307.226 333.312C307.626 333.477 307.941 333.709 308.17 334.008C308.399 334.307 308.559 334.667 308.65 335.088C308.741 335.504 308.786 335.968 308.786 336.48V340.56L308.946 342ZM307.266 337.736C307.117 337.715 306.957 337.693 306.786 337.672C306.642 337.656 306.477 337.64 306.29 337.624C306.103 337.608 305.909 337.6 305.706 337.6C305.407 337.6 305.133 337.629 304.882 337.688C304.637 337.747 304.423 337.843 304.242 337.976C304.061 338.104 303.919 338.272 303.818 338.48C303.717 338.688 303.666 338.941 303.666 339.24C303.666 339.48 303.706 339.699 303.786 339.896C303.866 340.093 303.975 340.264 304.114 340.408C304.253 340.552 304.415 340.664 304.602 340.744C304.794 340.819 304.999 340.856 305.218 340.856C305.319 340.856 305.426 340.843 305.538 340.816C305.655 340.784 305.77 340.744 305.882 340.696C305.999 340.648 306.114 340.592 306.226 340.528C306.343 340.464 306.453 340.4 306.554 340.336C306.794 340.181 307.031 340.005 307.266 339.808V337.736ZM313.112 342H311.592V333.2L313.112 333.04V334.504L313.6 333.648C313.696 333.584 313.819 333.517 313.968 333.448C314.118 333.379 314.283 333.317 314.464 333.264C314.651 333.205 314.851 333.157 315.064 333.12C315.278 333.083 315.494 333.064 315.712 333.064C316.134 333.064 316.488 333.133 316.776 333.272C317.07 333.405 317.307 333.6 317.488 333.856C317.67 334.112 317.798 334.421 317.872 334.784C317.952 335.147 317.992 335.552 317.992 336V342H316.472V336C316.472 335.712 316.451 335.464 316.408 335.256C316.371 335.048 316.302 334.877 316.2 334.744C316.104 334.605 315.974 334.504 315.808 334.44C315.643 334.376 315.438 334.344 315.192 334.344C315.011 334.344 314.827 334.373 314.64 334.432C314.454 334.485 314.27 334.557 314.088 334.648C313.912 334.733 313.739 334.829 313.568 334.936C313.403 335.043 313.251 335.147 313.112 335.248V342ZM164.811 361V349.64L164.651 348.2L166.331 348.04V355.48L169.291 352.2H171.123L168.163 355.48L166.819 355.984L168.163 356.464L172.011 361H170.123L166.331 356.544V361H164.811ZM179.368 361H177.688V359.704L176.936 360.6C176.845 360.669 176.741 360.736 176.624 360.8C176.506 360.864 176.386 360.923 176.264 360.976C176.146 361.024 176.026 361.061 175.904 361.088C175.786 361.12 175.677 361.136 175.576 361.136C175.176 361.136 174.792 361.075 174.424 360.952C174.061 360.824 173.741 360.64 173.464 360.4C173.192 360.155 172.973 359.853 172.808 359.496C172.648 359.133 172.568 358.717 172.568 358.248C172.568 357.752 172.666 357.323 172.864 356.96C173.066 356.592 173.322 356.288 173.632 356.048C173.946 355.803 174.296 355.621 174.68 355.504C175.064 355.381 175.44 355.32 175.808 355.32C176.112 355.32 176.378 355.336 176.608 355.368C176.842 355.4 177.04 355.437 177.2 355.48C177.386 355.528 177.549 355.581 177.688 355.64V355.36C177.688 355.045 177.669 354.763 177.632 354.512C177.594 354.261 177.517 354.051 177.4 353.88C177.288 353.704 177.122 353.571 176.904 353.48C176.69 353.389 176.405 353.344 176.048 353.344C175.76 353.344 175.482 353.365 175.216 353.408C174.949 353.445 174.712 353.488 174.504 353.536C174.258 353.595 174.032 353.656 173.824 353.72L173.248 352.648C173.482 352.541 173.749 352.445 174.048 352.36C174.304 352.285 174.608 352.219 174.96 352.16C175.312 352.096 175.701 352.064 176.128 352.064C176.741 352.064 177.248 352.147 177.648 352.312C178.048 352.477 178.362 352.709 178.592 353.008C178.821 353.307 178.981 353.667 179.072 354.088C179.162 354.504 179.208 354.968 179.208 355.48V359.56L179.368 361ZM177.688 356.736C177.538 356.715 177.378 356.693 177.208 356.672C177.064 356.656 176.898 356.64 176.712 356.624C176.525 356.608 176.33 356.6 176.128 356.6C175.829 356.6 175.554 356.629 175.304 356.688C175.058 356.747 174.845 356.843 174.664 356.976C174.482 357.104 174.341 357.272 174.24 357.48C174.138 357.688 174.088 357.941 174.088 358.24C174.088 358.48 174.128 358.699 174.208 358.896C174.288 359.093 174.397 359.264 174.536 359.408C174.674 359.552 174.837 359.664 175.024 359.744C175.216 359.819 175.421 359.856 175.64 359.856C175.741 359.856 175.848 359.843 175.96 359.816C176.077 359.784 176.192 359.744 176.304 359.696C176.421 359.648 176.536 359.592 176.648 359.528C176.765 359.464 176.874 359.4 176.976 359.336C177.216 359.181 177.453 359.005 177.688 358.808V356.736ZM183.534 359.72H184.846C185.337 359.72 185.761 359.64 186.118 359.48C186.481 359.315 186.777 359.085 187.006 358.792C187.241 358.499 187.414 358.147 187.526 357.736C187.638 357.325 187.694 356.872 187.694 356.376C187.694 355.853 187.643 355.403 187.542 355.024C187.441 354.64 187.302 354.325 187.126 354.08C186.95 353.829 186.745 353.645 186.51 353.528C186.281 353.405 186.035 353.344 185.774 353.344C185.513 353.344 185.267 353.379 185.038 353.448C184.814 353.512 184.606 353.595 184.414 353.696C184.227 353.797 184.059 353.909 183.91 354.032C183.761 354.155 183.635 354.272 183.534 354.384V359.72ZM182.014 365V352.2L183.534 352.04V353.448L184.294 352.432C184.449 352.341 184.667 352.259 184.95 352.184C185.238 352.104 185.59 352.064 186.006 352.064C186.449 352.064 186.865 352.168 187.254 352.376C187.643 352.584 187.982 352.88 188.27 353.264C188.563 353.648 188.793 354.112 188.958 354.656C189.129 355.2 189.214 355.808 189.214 356.48C189.214 357.136 189.107 357.741 188.894 358.296C188.681 358.845 188.377 359.323 187.982 359.728C187.593 360.128 187.118 360.44 186.558 360.664C186.003 360.888 185.382 361 184.694 361H183.534V365H182.014ZM197.368 361H195.688V359.704L194.936 360.6C194.845 360.669 194.741 360.736 194.624 360.8C194.506 360.864 194.386 360.923 194.264 360.976C194.146 361.024 194.026 361.061 193.904 361.088C193.786 361.12 193.677 361.136 193.576 361.136C193.176 361.136 192.792 361.075 192.424 360.952C192.061 360.824 191.741 360.64 191.464 360.4C191.192 360.155 190.973 359.853 190.808 359.496C190.648 359.133 190.568 358.717 190.568 358.248C190.568 357.752 190.666 357.323 190.864 356.96C191.066 356.592 191.322 356.288 191.632 356.048C191.946 355.803 192.296 355.621 192.68 355.504C193.064 355.381 193.44 355.32 193.808 355.32C194.112 355.32 194.378 355.336 194.608 355.368C194.842 355.4 195.04 355.437 195.2 355.48C195.386 355.528 195.549 355.581 195.688 355.64V355.36C195.688 355.045 195.669 354.763 195.632 354.512C195.594 354.261 195.517 354.051 195.4 353.88C195.288 353.704 195.122 353.571 194.904 353.48C194.69 353.389 194.405 353.344 194.048 353.344C193.76 353.344 193.482 353.365 193.216 353.408C192.949 353.445 192.712 353.488 192.504 353.536C192.258 353.595 192.032 353.656 191.824 353.72L191.248 352.648C191.482 352.541 191.749 352.445 192.048 352.36C192.304 352.285 192.608 352.219 192.96 352.16C193.312 352.096 193.701 352.064 194.128 352.064C194.741 352.064 195.248 352.147 195.648 352.312C196.048 352.477 196.362 352.709 196.592 353.008C196.821 353.307 196.981 353.667 197.072 354.088C197.162 354.504 197.208 354.968 197.208 355.48V359.56L197.368 361ZM195.688 356.736C195.538 356.715 195.378 356.693 195.208 356.672C195.064 356.656 194.898 356.64 194.712 356.624C194.525 356.608 194.33 356.6 194.128 356.6C193.829 356.6 193.554 356.629 193.304 356.688C193.058 356.747 192.845 356.843 192.664 356.976C192.482 357.104 192.341 357.272 192.24 357.48C192.138 357.688 192.088 357.941 192.088 358.24C192.088 358.48 192.128 358.699 192.208 358.896C192.288 359.093 192.397 359.264 192.536 359.408C192.674 359.552 192.837 359.664 193.024 359.744C193.216 359.819 193.421 359.856 193.64 359.856C193.741 359.856 193.848 359.843 193.96 359.816C194.077 359.784 194.192 359.744 194.304 359.696C194.421 359.648 194.536 359.592 194.648 359.528C194.765 359.464 194.874 359.4 194.976 359.336C195.216 359.181 195.453 359.005 195.688 358.808V356.736ZM201.534 361H200.014V352.2L201.534 352.04V353.504L202.022 352.648C202.118 352.584 202.241 352.517 202.39 352.448C202.539 352.379 202.705 352.317 202.886 352.264C203.073 352.205 203.273 352.157 203.486 352.12C203.699 352.083 203.915 352.064 204.134 352.064C204.555 352.064 204.91 352.133 205.198 352.272C205.491 352.405 205.729 352.6 205.91 352.856C206.091 353.112 206.219 353.421 206.294 353.784C206.374 354.147 206.414 354.552 206.414 355V361H204.894V355C204.894 354.712 204.873 354.464 204.83 354.256C204.793 354.048 204.723 353.877 204.622 353.744C204.526 353.605 204.395 353.504 204.23 353.44C204.065 353.376 203.859 353.344 203.614 353.344C203.433 353.344 203.249 353.373 203.062 353.432C202.875 353.485 202.691 353.557 202.51 353.648C202.334 353.733 202.161 353.829 201.99 353.936C201.825 354.043 201.673 354.147 201.534 354.248V361ZM211.128 359.72H212.44C212.93 359.72 213.354 359.64 213.712 359.48C214.074 359.315 214.37 359.085 214.6 358.792C214.834 358.499 215.008 358.147 215.12 357.736C215.232 357.325 215.288 356.872 215.288 356.376C215.288 355.853 215.237 355.403 215.136 355.024C215.034 354.64 214.896 354.325 214.72 354.08C214.544 353.829 214.338 353.645 214.104 353.528C213.874 353.405 213.629 353.344 213.368 353.344C213.106 353.344 212.861 353.379 212.632 353.448C212.408 353.512 212.2 353.595 212.008 353.696C211.821 353.797 211.653 353.909 211.504 354.032C211.354 354.155 211.229 354.272 211.128 354.384V359.72ZM209.608 365V352.2L211.128 352.04V353.448L211.888 352.432C212.042 352.341 212.261 352.259 212.544 352.184C212.832 352.104 213.184 352.064 213.6 352.064C214.042 352.064 214.458 352.168 214.848 352.376C215.237 352.584 215.576 352.88 215.864 353.264C216.157 353.648 216.386 354.112 216.552 354.656C216.722 355.2 216.808 355.808 216.808 356.48C216.808 357.136 216.701 357.741 216.488 358.296C216.274 358.845 215.97 359.323 215.576 359.728C215.186 360.128 214.712 360.44 214.152 360.664C213.597 360.888 212.976 361 212.288 361H211.128V365H209.608ZM224.082 352.2L225.602 352.04V361H224.082V359.696L223.594 360.552C223.498 360.616 223.383 360.683 223.25 360.752C223.122 360.821 222.975 360.885 222.81 360.944C222.644 360.997 222.463 361.043 222.266 361.08C222.068 361.117 221.86 361.136 221.642 361.136C221.215 361.136 220.847 361.059 220.538 360.904C220.234 360.749 219.983 360.533 219.786 360.256C219.588 359.979 219.442 359.651 219.346 359.272C219.25 358.888 219.202 358.472 219.202 358.024V352.2L220.722 352.04V358.024C220.722 358.6 220.836 359.051 221.066 359.376C221.3 359.696 221.666 359.856 222.162 359.856C222.343 359.856 222.522 359.827 222.698 359.768C222.874 359.709 223.044 359.635 223.21 359.544C223.375 359.453 223.53 359.355 223.674 359.248C223.823 359.141 223.959 359.037 224.082 358.936V352.2ZM230.315 361H228.795V352.2L230.315 352.04V353.504L230.803 352.648C230.899 352.584 231.022 352.517 231.171 352.448C231.321 352.379 231.486 352.317 231.667 352.264C231.854 352.205 232.054 352.157 232.267 352.12C232.481 352.083 232.697 352.064 232.915 352.064C233.337 352.064 233.691 352.133 233.979 352.272C234.273 352.405 234.51 352.6 234.691 352.856C234.873 353.112 235.001 353.421 235.075 353.784C235.155 354.147 235.195 354.552 235.195 355V361H233.675V355C233.675 354.712 233.654 354.464 233.611 354.256C233.574 354.048 233.505 353.877 233.403 353.744C233.307 353.605 233.177 353.504 233.011 353.44C232.846 353.376 232.641 353.344 232.395 353.344C232.214 353.344 232.03 353.373 231.843 353.432C231.657 353.485 231.473 353.557 231.291 353.648C231.115 353.733 230.942 353.829 230.771 353.936C230.606 354.043 230.454 354.147 230.315 354.248V361Z" fill="#003B1B"/>
</svg>
