<svg width="30" height="30" viewBox="0 0 30 30" fill="none" xmlns="http://www.w3.org/2000/svg">
<g clip-path="url(#clip0_8_11)">
<path d="M26.25 1.875C26.7473 1.875 27.2242 2.07254 27.5758 2.42417C27.9275 2.77581 28.125 3.25272 28.125 3.75V26.25C28.125 26.7473 27.9275 27.2242 27.5758 27.5758C27.2242 27.9275 26.7473 28.125 26.25 28.125H3.75C3.25272 28.125 2.77581 27.9275 2.42417 27.5758C2.07254 27.2242 1.875 26.7473 1.875 26.25V3.75C1.875 3.25272 2.07254 2.77581 2.42417 2.42417C2.77581 2.07254 3.25272 1.875 3.75 1.875H26.25ZM3.75 0C2.75544 0 1.80161 0.395088 1.09835 1.09835C0.395088 1.80161 0 2.75544 0 3.75L0 26.25C0 27.2446 0.395088 28.1984 1.09835 28.9016C1.80161 29.6049 2.75544 30 3.75 30H26.25C27.2446 30 28.1984 29.6049 28.9016 28.9016C29.6049 28.1984 30 27.2446 30 26.25V3.75C30 2.75544 29.6049 1.80161 28.9016 1.09835C28.1984 0.395088 27.2446 0 26.25 0L3.75 0Z" fill="white"/>
<path d="M16.7438 12.3525L12.45 12.8906L12.2963 13.6031L13.14 13.7588C13.6913 13.89 13.8 14.0888 13.68 14.6381L12.2963 21.1406C11.9325 22.8225 12.4931 23.6138 13.8113 23.6138C14.8331 23.6138 16.02 23.1413 16.5581 22.4925L16.7231 21.7125C16.3481 22.0425 15.8006 22.1738 15.4369 22.1738C14.9213 22.1738 14.7338 21.8119 14.8669 21.1744L16.7438 12.3525ZM16.875 8.4375C16.875 8.93478 16.6775 9.41169 16.3258 9.76333C15.9742 10.115 15.4973 10.3125 15 10.3125C14.5027 10.3125 14.0258 10.115 13.6742 9.76333C13.3225 9.41169 13.125 8.93478 13.125 8.4375C13.125 7.94022 13.3225 7.46331 13.6742 7.11167C14.0258 6.76004 14.5027 6.5625 15 6.5625C15.4973 6.5625 15.9742 6.76004 16.3258 7.11167C16.6775 7.46331 16.875 7.94022 16.875 8.4375Z" fill="white"/>
</g>
<defs>
<clipPath id="clip0_8_11">
<rect width="30" height="30" fill="white"/>
</clipPath>
</defs>
</svg>
