<svg width="30" height="30" viewBox="0 0 30 30" fill="none" xmlns="http://www.w3.org/2000/svg">
<path d="M5.625 8.4375H24.375C25.3696 8.4375 26.3234 8.83259 27.0266 9.53585C27.7299 10.2391 28.125 11.1929 28.125 12.1875V17.8125C28.125 18.8071 27.7299 19.7609 27.0266 20.4641C26.3234 21.1674 25.3696 21.5625 24.375 21.5625H5.625C4.63044 21.5625 3.67661 21.1674 2.97335 20.4641C2.27009 19.7609 1.875 18.8071 1.875 17.8125V12.1875C1.875 11.1929 2.27009 10.2391 2.97335 9.53585C3.67661 8.83259 4.63044 8.4375 5.625 8.4375ZM5.625 10.3125C5.12772 10.3125 4.65081 10.51 4.29917 10.8617C3.94754 11.2133 3.75 11.6902 3.75 12.1875V17.8125C3.75 18.3098 3.94754 18.7867 4.29917 19.1383C4.65081 19.49 5.12772 19.6875 5.625 19.6875H24.375C24.8723 19.6875 25.3492 19.49 25.7008 19.1383C26.0525 18.7867 26.25 18.3098 26.25 17.8125V12.1875C26.25 11.6902 26.0525 11.2133 25.7008 10.8617C25.3492 10.51 24.8723 10.3125 24.375 10.3125H5.625ZM1.875 3.75C1.875 3.50136 1.97377 3.2629 2.14959 3.08709C2.3254 2.91127 2.56386 2.8125 2.8125 2.8125H27.1875C27.4361 2.8125 27.6746 2.91127 27.8504 3.08709C28.0262 3.2629 28.125 3.50136 28.125 3.75C28.125 3.99864 28.0262 4.2371 27.8504 4.41291C27.6746 4.58873 27.4361 4.6875 27.1875 4.6875H2.8125C2.56386 4.6875 2.3254 4.58873 2.14959 4.41291C1.97377 4.2371 1.875 3.99864 1.875 3.75ZM1.875 26.25C1.875 26.0014 1.97377 25.7629 2.14959 25.5871C2.3254 25.4113 2.56386 25.3125 2.8125 25.3125H27.1875C27.4361 25.3125 27.6746 25.4113 27.8504 25.5871C28.0262 25.7629 28.125 26.0014 28.125 26.25C28.125 26.4986 28.0262 26.7371 27.8504 26.9129C27.6746 27.0887 27.4361 27.1875 27.1875 27.1875H2.8125C2.56386 27.1875 2.3254 27.0887 2.14959 26.9129C1.97377 26.7371 1.875 26.4986 1.875 26.25Z" fill="white"/>
</svg>
