<svg width="30" height="30" viewBox="0 0 30 30" fill="none" xmlns="http://www.w3.org/2000/svg">
<path d="M22.5 20H21.775L20.7625 18.9875C21.8858 17.4719 22.4947 15.6365 22.5 13.75C22.5 8.9125 18.5875 5 13.75 5C11.875 5 10 5.625 8.4875 6.75C4.625 9.65 3.8375 15.1375 6.7375 19C9.6375 22.8625 15.125 23.65 18.9875 20.75L20 21.7625V22.5L26.25 28.75L28.75 26.25L22.5 20ZM13.75 20C10.3 20 7.5 17.2 7.5 13.75C7.5 10.3 10.3 7.5 13.75 7.5C17.2 7.5 20 10.3 20 13.75C20 17.2 17.2 20 13.75 20ZM3.75 7.5L1.25 10V1.25H10L7.5 3.75H3.75V7.5ZM26.25 1.25V10L23.75 7.5V3.75H20L17.5 1.25H26.25ZM7.5 23.75L10 26.25H1.25V17.5L3.75 20V23.75H7.5Z" fill="white"/>
</svg>
